<?xml version="1.0" encoding="UTF-8" standalone="no"?>
<!DOCTYPE svg PUBLIC "-//W3C//DTD SVG 1.1//EN" "http://www.w3.org/Graphics/SVG/1.1/DTD/svg11.dtd">
<svg width="100%" height="100%" viewBox="0 0 715 76" version="1.1" xmlns="http://www.w3.org/2000/svg" xmlns:xlink="http://www.w3.org/1999/xlink" xml:space="preserve" xmlns:serif="http://www.serif.com/" style="fill-rule:evenodd;clip-rule:evenodd;stroke-linejoin:round;stroke-miterlimit:2;">
    <g transform="matrix(1,0,0,1,-182.732,-505.677)">
        <g>
            <g id="Logo">
                <g>
                    <path d="M219.415,532.332C217.677,531.029 215.937,530.095 214.197,529.531C212.457,528.966 210.77,528.74 209.137,528.852C207.068,528.993 205.38,529.601 204.071,530.676C202.762,531.75 202.105,533.08 202.101,534.666C202.099,535.76 202.423,536.641 203.074,537.307C203.726,537.973 204.582,538.53 205.642,538.977C206.702,539.424 207.899,539.793 209.232,540.085C210.564,540.376 211.883,540.696 213.189,541.044C218.411,542.437 222.229,544.513 224.644,547.274C227.059,550.034 228.261,553.767 228.25,558.471C228.242,561.644 227.704,564.552 226.636,567.196C225.568,569.84 224.011,572.148 221.965,574.12C219.919,576.093 217.412,577.686 214.442,578.902C211.473,580.117 208.11,580.853 204.354,581.11C196.569,581.644 189.362,579.813 182.732,575.618L189.624,562.184C192.013,564.153 194.378,565.577 196.716,566.456C199.054,567.335 201.366,567.696 203.653,567.54C206.266,567.361 208.213,566.626 209.496,565.335C210.778,564.044 211.421,562.632 211.425,561.101C211.427,560.171 211.266,559.375 210.941,558.714C210.616,558.052 210.073,557.46 209.312,556.938C208.552,556.416 207.559,555.951 206.336,555.542C205.112,555.134 203.63,554.689 201.89,554.206C199.823,553.691 197.797,553.106 195.812,552.448C193.827,551.791 192.06,550.86 190.512,549.653C188.964,548.446 187.716,546.877 186.768,544.946C185.82,543.015 185.35,540.517 185.358,537.454C185.365,534.391 185.876,531.58 186.889,529.022C187.902,526.464 189.323,524.234 191.151,522.331C192.979,520.428 195.214,518.894 197.857,517.729C200.5,516.563 203.454,515.869 206.72,515.645C209.769,515.436 212.952,515.642 216.271,516.262C219.59,516.883 222.771,517.909 225.816,519.341L219.415,532.332Z" style="fill:rgb(77,188,139);fill-rule:nonzero;"/>
                    <path d="M261.423,530.825L247.627,578.951L231.585,578.951L245.381,530.825L232.203,530.825L236.098,517.238L278.495,517.238L274.6,530.825L261.423,530.825Z" style="fill:rgb(77,188,139);fill-rule:nonzero;"/>
                    <g id="Icon">
                        <path d="M352.403,505.677C352.404,505.677 287.518,532.263 278.917,578.951L243.995,578.951C243.995,578.951 261.41,530.713 352.403,505.677Z" style="fill:rgb(77,188,139);"/>
                        <path d="M357.551,505.677C357.551,505.677 302.896,542.325 311.997,578.951L352.403,578.951C352.403,578.951 328.853,552.456 357.551,505.677Z" style="fill:rgb(77,188,139);"/>
                    </g>
                    <path d="M374.344,544.821L377.372,544.821C380.537,544.821 383.153,544.166 385.22,542.856C387.287,541.547 388.672,539.664 389.376,537.209C390.08,534.753 389.774,532.871 388.458,531.561C387.142,530.252 384.901,529.597 381.736,529.597L378.708,529.597L374.344,544.821ZM399.837,578.951L379.866,578.951L371.364,555.215L364.56,578.951L348.518,578.951L366.209,517.238L391.172,517.238C394.61,517.238 397.466,517.743 399.741,518.752C402.016,519.762 403.736,521.139 404.9,522.885C406.063,524.632 406.74,526.65 406.928,528.942C407.117,531.234 406.836,533.689 406.085,536.308C404.74,541.001 402.517,544.807 399.416,547.726C396.315,550.645 392.405,552.623 387.689,553.66L399.837,578.951Z" style="fill:rgb(77,188,139);fill-rule:nonzero;"/>
                    <path d="M443.751,530.825L429.955,578.951L413.913,578.951L427.709,530.825L414.531,530.825L418.426,517.238L460.823,517.238L456.928,530.825L443.751,530.825Z" style="fill:rgb(77,188,139);fill-rule:nonzero;"/>
                    <path d="M486.287,517.238L468.596,578.951L452.554,578.951L470.245,517.238L486.287,517.238Z" style="fill:rgb(77,188,139);fill-rule:nonzero;"/>
                    <path d="M478.491,578.951L496.182,517.238L512.224,517.238L531.037,554.97L541.853,517.238L557.813,517.238L540.123,578.951L524.162,578.951L505.349,541.219L494.533,578.951L478.491,578.951Z" style="fill:rgb(77,188,139);fill-rule:nonzero;"/>
                    <path d="M591.467,544.411L623.306,544.411C622.367,547.685 621.378,550.659 620.339,553.333C619.3,556.006 618.042,558.489 616.567,560.781C614.498,564 612.126,566.851 609.45,569.334C606.774,571.817 603.874,573.89 600.751,575.554C597.627,577.219 594.358,578.487 590.943,579.36C587.528,580.233 584.074,580.67 580.582,580.67C575.78,580.67 571.628,579.879 568.126,578.296C564.624,576.714 561.864,574.49 559.848,571.626C557.832,568.761 556.607,565.323 556.175,561.313C555.742,557.302 556.222,552.869 557.614,548.013C558.99,543.211 561.031,538.805 563.735,534.794C566.44,530.784 569.632,527.36 573.31,524.522C576.988,521.685 581.072,519.475 585.564,517.893C590.055,516.31 594.784,515.519 599.749,515.519C606.188,515.519 611.436,516.911 615.495,519.693C619.553,522.476 622.165,526.787 623.328,532.625L606.298,538.928C605.849,535.545 604.704,533.116 602.862,531.643C601.019,530.17 598.652,529.433 595.76,529.433C593.36,529.433 591.048,529.883 588.825,530.784C586.603,531.684 584.558,532.966 582.689,534.631C580.821,536.295 579.155,538.3 577.691,540.646C576.227,542.993 575.081,545.612 574.252,548.504C573.501,551.123 573.146,553.551 573.187,555.788C573.227,558.025 573.695,559.962 574.59,561.599C575.485,563.236 576.813,564.505 578.574,565.405C580.334,566.306 582.552,566.756 585.225,566.756C586.808,566.756 588.386,566.578 589.961,566.224C591.536,565.869 593.024,565.296 594.424,564.505C595.824,563.714 597.085,562.691 598.209,561.436C599.333,560.181 600.289,558.653 601.078,556.852L587.901,556.852L591.467,544.411Z" style="fill:rgb(77,188,139);fill-rule:nonzero;"/>
                </g>
                <g>
                    <path id="P" d="M646.705,545.588L651.746,545.588C657.329,545.588 660.847,543.054 662.3,537.986C663.753,532.918 661.687,530.384 656.104,530.384L651.063,530.384L646.705,545.588ZM637.247,578.582L622.048,578.582L639.527,517.607L663.721,517.607C670.287,517.607 674.805,519.386 677.274,522.944C679.744,526.503 680.051,531.516 678.197,537.986C676.342,544.455 673.16,549.469 668.651,553.027C664.141,556.586 658.604,558.365 652.038,558.365L643.043,558.365L637.247,578.582Z" style="fill:white;fill-rule:nonzero;"/>
                    <path id="O" d="M697.773,548.095C697.078,550.521 696.876,552.758 697.167,554.807C697.459,556.855 698.138,558.634 699.204,560.144C700.271,561.653 701.68,562.826 703.43,563.662C705.181,564.497 707.168,564.915 709.391,564.915C711.614,564.915 713.841,564.497 716.07,563.662C718.3,562.826 720.394,561.653 722.352,560.144C724.31,558.634 726.022,556.855 727.488,554.807C728.954,552.758 730.035,550.521 730.73,548.095C731.426,545.668 731.628,543.431 731.336,541.382C731.044,539.334 730.352,537.555 729.26,536.045C728.168,534.536 726.746,533.363 724.995,532.527C723.244,531.692 721.258,531.274 719.035,531.274C716.812,531.274 714.585,531.692 712.355,532.527C710.125,533.363 708.044,534.536 706.112,536.045C704.18,537.555 702.481,539.334 701.015,541.382C699.549,543.431 698.468,545.668 697.773,548.095ZM681.876,548.095C683.174,543.566 685.185,539.347 687.908,535.439C690.631,531.53 693.831,528.12 697.509,525.209C701.187,522.297 705.239,520.02 709.665,518.375C714.092,516.731 718.683,515.909 723.439,515.909C728.143,515.909 732.25,516.731 735.76,518.375C739.269,520.02 742.041,522.297 744.076,525.209C746.111,528.12 747.369,531.53 747.851,535.439C748.333,539.347 747.925,543.566 746.627,548.095C745.329,552.623 743.318,556.842 740.595,560.75C737.872,564.659 734.659,568.069 730.955,570.98C727.251,573.892 723.174,576.169 718.721,577.814C714.269,579.458 709.691,580.28 704.987,580.28C700.23,580.28 696.111,579.458 692.627,577.814C689.144,576.169 686.397,573.892 684.389,570.98C682.38,568.069 681.134,564.659 680.652,560.75C680.17,556.842 680.578,552.623 681.876,548.095Z" style="fill:white;fill-rule:nonzero;"/>
                    <path id="I" d="M778.091,517.607L760.613,578.582L745.414,578.582L762.892,517.607L778.091,517.607Z" style="fill:white;fill-rule:nonzero;"/>
                    <path id="N" d="M771.302,578.582L788.78,517.607L803.979,517.607L821.365,554.887L832.051,517.607L847.173,517.607L829.694,578.582L814.572,578.582L797.187,541.302L786.501,578.582L771.302,578.582Z" style="fill:white;fill-rule:nonzero;"/>
                    <path id="T" d="M880.935,531.031L867.304,578.582L852.105,578.582L865.736,531.031L853.251,531.031L857.099,517.607L897.268,517.607L893.42,531.031L880.935,531.031Z" style="fill:white;fill-rule:nonzero;"/>
                </g>
            </g>
        </g>
    </g>
</svg>
